# xmcd
#
# Track frame offsets: 
#        300
#        12973
#        25346
#        35845
#        52117
#        67265
#        76415
#        89538
#        101163
#        122758
#        136782
#        151554
#        163179
#
# Disc length: 2385 seconds
#
# Revision: 2
# Processed by: cddbd v1.5.2PL0 Copyright (c) Steve Scherf et al.
# Submitted via: ExactAudioCopy v0.99pb5
#
DISCID=b0094d0d
DTITLE=Bob Margolin - The Old School
DYEAR=1988
DGENRE=
TTITLE0=Just Keep Lovin' Her
TTITLE1=The Old School
TTITLE2=Later For You
TTITLE3=River's Invitation
TTITLE4=Lonesome Blues
TTITLE5=The Window
TTITLE6=Kindhearted Woman
TTITLE7=At My Front Door (Crazy Little Mama)
TTITLE8=Memory Pain
TTITLE9=Young Fashioned Ways
TTITLE10=Ooh Wee
TTITLE11=My Life Is Ruined
TTITLE12=Mean Woman Blues
EXTD=
EXTT0=
EXTT1=
EXTT2=
EXTT3=
EXTT4=
EXTT5=
EXTT6=
EXTT7=
EXTT8=
EXTT9=
EXTT10=
EXTT11=
EXTT12=
PLAYORDER=
